<svg width="122" height="117" viewBox="0 0 122 117" fill="none" xmlns="http://www.w3.org/2000/svg">
<path fill-rule="evenodd" clip-rule="evenodd" d="M44.2913 95.7225C45.5237 95.7225 46.4244 95.9835 46.9932 96.5056C47.562 97.0276 47.8468 97.8395 47.8474 98.9413V104.847H45.9987V99.1911C45.9987 97.9459 45.3005 97.3232 43.9041 97.3232C43.3009 97.3182 42.7087 97.4848 42.1967 97.8037C42.2853 98.1762 42.3269 98.5584 42.3206 98.9413V104.847H40.4719V99.1911C40.4719 97.9459 39.7737 97.3232 38.3773 97.3232C37.7401 97.3238 37.1082 97.4384 36.5113 97.6615V104.847H34.6636V96.6478C35.2754 96.3436 35.9229 96.1176 36.5911 95.9752C37.3038 95.809 38.0327 95.7226 38.7645 95.7177C39.9175 95.7177 40.7743 95.9419 41.3348 96.3903C42.2579 95.9493 43.2682 95.7211 44.2913 95.7225ZM54.1813 105.118C52.7721 105.118 51.7129 104.714 51.0038 103.908C50.2947 103.101 49.9398 101.928 49.9392 100.386C49.9392 97.2675 51.3484 95.7084 54.1669 95.709C55.587 95.709 56.6548 96.1091 57.3704 96.9091C58.0859 97.7092 58.4439 98.8683 58.4446 100.386C58.4446 101.903 58.075 103.071 57.3358 103.89C56.5966 104.708 55.5451 105.118 54.1813 105.118ZM54.163 103.534C55.783 103.534 56.5927 102.485 56.5921 100.386C56.5921 99.3429 56.3999 98.5634 56.0156 98.0477C55.6312 97.5321 55.015 97.2739 54.1669 97.2733C53.3105 97.2733 52.6974 97.5372 52.3278 98.065C51.9582 98.5928 51.7734 99.3666 51.7734 100.386C51.7734 101.406 51.964 102.185 52.3451 102.725C52.7263 103.265 53.3322 103.534 54.163 103.53V103.534ZM64.6161 95.7263C65.9305 95.7263 66.9279 96.1235 67.6082 96.9178C68.2885 97.7121 68.6296 98.8372 68.6315 100.293C68.6315 102.048 68.2238 103.29 67.4083 104.019C66.5929 104.748 65.5564 105.114 64.299 105.118C61.7758 105.118 60.5142 104.442 60.5142 103.09V92.3432H62.3456V96.2778C62.7139 96.1019 63.1006 95.9675 63.4986 95.8772C63.8641 95.7834 64.239 95.7315 64.6161 95.7225V95.7263ZM64.1578 103.499C65.1186 103.499 65.7912 103.22 66.1756 102.663C66.5599 102.105 66.7521 101.341 66.7521 100.368C66.7521 99.3727 66.5496 98.614 66.1448 98.0919C65.74 97.5699 65.1388 97.3092 64.3413 97.3098C63.9939 97.3121 63.648 97.3567 63.3113 97.4424C62.9742 97.5238 62.6506 97.6532 62.3504 97.8267V102.631C62.3472 103.207 62.9497 103.495 64.1578 103.495V103.499ZM70.7204 92.8092H72.692V94.4993H70.7204V92.8092ZM70.7732 95.9752H72.6219L72.6392 104.851H70.7732V95.9752ZM75.2411 104.851V92.5392H77.0725V104.847L75.2411 104.851ZM83.2652 95.7013C84.6385 95.7013 85.6449 96.1497 86.2842 97.0465C86.9234 97.9433 87.2373 99.1972 87.2258 100.808H81.0264C81.086 101.686 81.3422 102.353 81.7951 102.81C82.248 103.266 82.8904 103.494 83.7225 103.494C84.7194 103.495 85.7004 103.244 86.5743 102.765V104.507C85.659 104.914 84.6104 105.118 83.4285 105.118C82.1026 105.118 81.061 104.712 80.3038 103.899C79.5467 103.087 79.1684 101.934 79.1691 100.44C79.1691 98.9106 79.5268 97.7399 80.2424 96.9283C80.9579 96.1167 81.9655 95.7077 83.2652 95.7013ZM83.2123 97.2387C82.5903 97.2387 82.1035 97.4049 81.7518 97.7374C81.4002 98.0698 81.1712 98.6329 81.0648 99.4265H85.3425C85.2599 98.6675 85.0485 98.1134 84.7084 97.7643C84.3682 97.4152 83.8696 97.24 83.2123 97.2387ZM65.5568 24.0663C63.5179 23.5622 61.9485 23.3098 60.8486 23.3092C52.6439 23.3092 45.992 29.939 45.992 38.1149C45.992 46.2907 52.6468 52.9215 60.8486 52.9215C69.0504 52.9215 75.7062 46.2917 75.7062 38.1149C75.7068 36.9204 75.5629 35.7302 75.2777 34.5703L87.0893 31.389C88.0462 35.0265 88.2271 38.8246 87.6204 42.5365C87.0137 46.2485 85.633 49.7914 83.5678 52.935L64.0088 89.1964H45.8892L58.7645 65.4635C58.8347 65.3328 58.6281 65.0446 58.4551 65.0292C44.6968 63.7801 33.9199 52.2499 33.9199 38.2129C33.9199 23.3399 46.017 11.2842 60.9409 11.2842C63.6728 11.2812 66.3894 11.6916 68.9985 12.5016L65.5568 24.0663Z" fill="#006E53"/>
<path d="M60.7584 46.2583C65.2558 46.2583 68.9016 42.6125 68.9016 38.1151C68.9016 33.6178 65.2558 29.9719 60.7584 29.9719C56.2611 29.9719 52.6152 33.6178 52.6152 38.1151C52.6152 42.6125 56.2611 46.2583 60.7584 46.2583Z" fill="#D6E806"/>
<path d="M74.8251 32.5634C73.4143 29.0318 70.6952 26.1809 67.2344 24.6047M80.0079 30.3419C78.0154 25.4439 74.2481 21.4783 69.4587 19.2374M85.0052 28.6767C82.4674 22.2196 77.4767 17.0296 71.1239 14.241" stroke="#D6E806" stroke-width="1.85078" stroke-linecap="round"/>
</svg>
