<svg width="89" height="95" viewBox="0 0 89 95" fill="none" xmlns="http://www.w3.org/2000/svg">
<path d="M56.7334 0.28418C60.1765 0.33203 63.4615 0.985289 66.5291 2.54562C69.2337 3.93015 71.439 5.86601 72.9442 8.53417C73.9224 10.2956 74.5641 12.2237 74.8363 14.22C75.396 18.0522 74.8301 21.7595 73.5662 25.3847C72.8235 27.5109 71.7958 29.505 70.6827 31.4638C68.4151 35.4509 65.5014 38.9065 62.1124 41.97C57.7643 45.9041 52.9964 49.3475 47.8946 52.238C45.9182 53.3542 43.869 54.2914 41.6647 54.8646C40.3144 55.2293 38.9202 55.4057 37.5215 55.3889C35.6803 55.3514 34.2396 54.513 33.1193 53.1004C32.0848 51.8325 31.5518 50.229 31.6214 48.5941C31.6336 48.1393 31.6992 47.6875 31.817 47.2481C32.4837 44.8795 33.3898 42.6108 34.7441 40.5418C35.7792 38.9617 37.0129 37.5584 38.6262 36.5546C40.4206 35.4374 42.371 34.9599 44.4806 35.4208C45.1401 35.5754 45.7608 35.8639 46.3041 36.2685C47.6928 37.2609 47.62 38.8181 46.9532 39.8126C46.382 40.6768 45.7434 41.4945 45.0434 42.2581C43.8575 43.5355 42.5978 44.7432 41.3683 45.979C40.2802 47.0723 39.2577 48.2196 38.4286 49.5272C37.999 50.2054 37.6027 50.8972 37.4841 51.7117C37.3343 52.7332 37.8648 53.4291 38.8957 53.5248C39.429 53.5683 39.9659 53.5144 40.4799 53.3656C42.0642 52.9277 43.535 52.2214 44.9799 51.4599C47.2081 50.2814 49.2646 48.8407 51.2691 47.3209C53.6991 45.4787 56.0614 43.5574 58.2386 41.4208C60.7185 38.9898 62.9289 36.3476 64.6203 33.2987C65.8561 31.0726 66.7663 28.7217 67.171 26.2002C67.5288 23.9794 67.3291 21.8157 66.3003 19.7769C65.8049 18.7691 65.0299 17.9252 64.068 17.3459C63.6238 17.0785 63.1339 16.8958 62.6231 16.8071C60.7642 16.4773 58.9657 16.7478 57.1984 17.3376C55.3561 17.9534 53.647 18.8521 51.9858 19.8341C48.3804 21.9728 44.7708 24.1104 41.335 26.5186C39.6124 27.7252 37.9428 29.0088 36.2545 30.2633C34.7296 31.3972 33.215 32.5446 31.5486 33.4714C30.1962 34.2415 28.7326 34.797 27.2098 35.1181C25.3229 35.5009 23.5836 35.1451 21.9858 34.1194C20.3277 33.0553 19.1668 31.5948 18.6571 29.6621C18.3326 28.4419 18.4605 27.2321 18.7403 26.0276C19.1491 24.2592 19.9252 22.6573 20.8926 21.1385C23.2851 17.3875 26.2934 14.2055 29.7916 11.4853C34.9761 7.45442 40.6807 4.3504 46.8513 2.10457C50.0193 0.945731 53.3604 0.33028 56.7334 0.28418Z" fill="#E20010"/>
<path d="M14.0802 78.4111C14.0625 77.2336 13.9284 76.1747 13.2481 75.2561C12.9168 74.8123 12.4581 74.4799 11.9332 74.3033C10.5809 73.8186 9.20367 73.8758 7.86075 74.2908C6.78412 74.6237 5.74598 75.0772 4.69224 75.4819C4.48419 75.5588 4.29487 75.6577 4.04314 75.77C3.54695 74.5394 3.05909 73.3453 2.54834 72.097C3.28794 71.7464 3.98489 71.3886 4.70368 71.0817C6.35971 70.3733 8.07711 69.8876 9.88294 69.7783C11.6888 69.6691 13.4707 69.7648 15.1142 70.6407C16.9731 71.6247 18.315 73.0457 18.8767 75.1136C18.9577 75.3843 19.0063 75.6637 19.0213 75.9458C19.0931 78.6306 19.1898 81.3154 19.2012 84.0002C19.2085 85.8352 19.0879 87.6712 19.0338 89.5072C19.0241 89.7589 18.9193 89.9976 18.7404 90.175C17.4557 91.5897 15.884 92.5675 14.1031 93.2239C12.1935 93.9207 10.1598 94.2129 8.13121 94.0821C6.25881 93.9781 4.6423 93.2114 3.27545 91.9392C1.9086 90.667 0.953681 89.1306 0.687384 87.2478C0.323307 84.6691 1.06707 82.4316 2.92074 80.5904C4.11283 79.4066 5.58162 78.795 7.23662 78.5786C9.06741 78.3404 10.9044 78.4039 12.7415 78.4091L14.0802 78.4111ZM13.8399 82.6032C13.732 82.5819 13.623 82.567 13.5133 82.5585C12.8892 82.546 12.2578 82.5242 11.6305 82.5335C10.8784 82.545 10.1232 82.5481 9.37531 82.6188C8.60243 82.6927 7.85243 82.9184 7.25326 83.4344C6.25881 84.2915 5.96339 85.4108 6.20576 86.6726C6.50742 88.2329 7.37913 89.3231 8.93322 89.787C9.73453 90.0267 10.583 90.0624 11.4017 89.891C12.1626 89.7517 12.8723 89.4112 13.4571 88.9049C13.5561 88.8281 13.6375 88.731 13.6959 88.6201C13.7542 88.5092 13.7881 88.3871 13.7952 88.262C13.8191 87.7138 13.8899 87.1667 13.894 86.6185C13.9024 85.3629 13.8836 84.1074 13.8732 82.8518C13.867 82.7684 13.8559 82.6854 13.8399 82.6032Z" fill="#E20010"/>
<path d="M76.6465 82.4991C72.1839 82.4991 67.8046 82.4034 63.3639 82.5199C63.3868 82.832 63.4003 83.1274 63.4284 83.4156C63.5428 84.5941 63.7966 85.7394 64.2949 86.8202C64.6823 87.7018 65.2837 88.4726 66.0445 89.0629C67.2512 89.9793 68.6284 90.1291 70.0733 89.9429C71.2675 89.789 72.3795 89.3521 73.4883 88.9121C73.997 88.7113 74.5015 88.496 75.0487 88.2723C75.5688 89.3604 76.0785 90.4298 76.609 91.5303C76.5112 91.6011 76.4197 91.6801 76.3178 91.7384C74.1541 93.022 71.8302 93.849 69.3202 94.0674C67.0317 94.2661 64.8472 93.8906 62.8708 92.6246C61.5248 91.7623 60.5823 90.5442 59.7938 89.1815C58.8227 87.4861 58.2347 85.5986 58.0712 83.6517C57.7411 80.1018 58.4949 76.7966 60.3327 73.7363C61.6142 71.609 63.5272 70.4534 65.9218 70.055C68.1229 69.6679 70.3901 70.0452 72.3472 71.1243C73.4436 71.7183 74.2071 72.6534 74.8365 73.702C75.6686 75.0844 76.1066 76.6083 76.3167 78.1874C76.4873 79.4606 76.5414 80.7495 76.6433 82.0362C76.6558 82.1683 76.6465 82.3056 76.6465 82.4991ZM71.2373 78.4579C70.9783 77.271 70.8015 76.0581 70.0244 75.0522C69.6347 74.5522 69.0874 74.1988 68.4714 74.0494C66.833 73.6156 65.1863 74.3708 64.4821 75.9218C64.2304 76.4742 64.0827 77.0744 63.8996 77.6558C63.8174 77.919 63.7644 78.1926 63.6988 78.4579C64.1388 78.5744 70.7869 78.5796 71.2394 78.461L71.2373 78.4579Z" fill="#E20010"/>
<path d="M47.3713 64.3692L52.6962 63.5454V70.0852C53.8779 70.156 55.0034 70.079 56.1352 70.2007V74.2295C54.9909 74.2482 53.8706 74.2139 52.7024 74.2846V74.8505C52.6927 78.7284 52.6844 82.6067 52.6775 86.4854C52.6775 87.096 52.7263 87.7076 52.7815 88.3162C52.8689 89.2524 53.3879 89.8463 54.295 90.0741C54.7954 90.201 55.3092 90.2728 55.8168 90.3696L56.3266 90.4736V93.8928C56.2693 93.9211 56.2084 93.9414 56.1456 93.9531C54.6341 94.0207 53.1289 93.9812 51.6674 93.537C50.2402 93.1064 49.0502 92.3262 48.243 91.0405C47.7843 90.3123 47.5512 89.4937 47.4503 88.648C47.3894 88.1183 47.3595 87.5855 47.3609 87.0523C47.3609 79.6875 47.365 72.3235 47.3734 64.9601L47.3713 64.3692Z" fill="#E20010"/>
<path d="M79.5736 64.3733L84.7226 63.4808V64.1913C84.7226 70.8799 84.7254 77.5685 84.731 84.2572C84.731 85.4815 84.7414 86.7058 84.7507 87.9312C84.7591 89.14 85.2001 89.7558 86.3548 90.1157C86.7471 90.2242 87.1455 90.3096 87.5479 90.3716C87.7934 90.4174 88.042 90.4392 88.3405 90.4756V93.9687C88.3128 93.9917 88.28 94.0077 88.2448 94.0155C86.7823 94.0748 85.326 94.0508 83.904 93.6348C83.0424 93.3867 82.2401 92.9663 81.5458 92.399C80.2528 91.3411 79.7265 89.9232 79.5912 88.3244C79.5517 87.8563 79.5569 87.383 79.558 86.9128C79.558 79.5959 79.5632 72.2797 79.5736 64.9642V64.3733Z" fill="#E20010"/>
<path d="M37.0192 93.6599H31.8181C31.8119 93.4425 31.8015 93.2438 31.8004 93.0472C31.7949 89.9224 31.7904 86.7975 31.7869 83.6727C31.7806 81.1762 31.765 78.6797 31.7661 76.1831C31.7677 75.7304 31.8025 75.2785 31.8701 74.8308C31.9471 74.3201 32.2144 73.8946 32.5858 73.5358C34.6288 71.5469 37.0764 70.3548 39.8673 69.8409C41.6164 69.5202 43.409 69.5177 45.1589 69.8336C45.2515 69.8503 45.3441 69.8711 45.4346 69.894C45.4793 69.9054 45.522 69.9272 45.6083 69.9605C45.0175 71.4626 44.2976 72.8981 43.6194 74.317C42.8091 74.317 42.0414 74.293 41.2758 74.3222C39.9536 74.3661 38.6558 74.6894 37.4675 75.2709C37.1305 75.4362 37.0046 75.6422 37.0057 76.0302C37.0202 81.7168 37.0237 87.4033 37.0161 93.0898L37.0192 93.6599Z" fill="#E20010"/>
<path d="M27.9816 70.3056C28.0368 78.099 27.9764 85.8465 28.0264 93.642H22.9366C22.9241 93.4537 22.8991 93.2571 22.8991 93.0605C22.8991 88.161 22.8991 83.2609 22.8991 78.3601C22.8991 76.1143 22.9178 73.8684 22.9272 71.6226C22.9272 71.452 22.9272 71.2814 22.9272 71.0671L27.9816 70.3056Z" fill="#E20010"/>
<path d="M25.2249 68.0119C22.7398 68.0057 21.1836 65.532 22.2145 63.1967C22.848 61.7643 23.936 61.2203 25.5057 61.2297C27.609 61.2473 29.1683 63.3392 28.667 65.3833C28.2665 67.0164 26.9558 68.0161 25.2249 68.0119Z" fill="#E20010"/>
</svg>
