<svg width="80" height="81" viewBox="0 0 80 81" fill="none" xmlns="http://www.w3.org/2000/svg">
<rect y="0.5" width="80" height="80" rx="40" fill="#009688" fill-opacity="0.08"/>
<path d="M44.7973 28.3571C49.4223 28.3571 53.1723 32.11 53.1723 36.74C53.1723 36.9643 53.1558 37.1836 53.1387 37.4043C51.2618 37.5455 49.4807 38.2893 48.0608 39.525C49.1232 38.9112 50.3285 38.5882 51.5554 38.5886C52.7823 38.5889 53.9875 38.9127 55.0494 39.5271C57.1523 40.7414 58.5723 43.0086 58.5723 45.6143C58.5723 48.95 56.2451 51.7414 53.1273 52.4571C52.6107 52.5795 52.0817 52.6418 51.5508 52.6429H27.1394C26.5309 52.6429 25.9265 52.5444 25.3494 52.3514C24.2089 51.9743 23.2162 51.2474 22.5125 50.2739C21.8088 49.3004 21.4298 48.1298 21.4294 46.9286C21.4284 46.1127 21.603 45.3061 21.9412 44.5635C22.2793 43.821 22.7733 43.1599 23.3894 42.625C23.9367 42.1452 24.5714 41.7753 25.2587 41.5357C25.863 41.3232 26.4988 41.2138 27.1394 41.2121C28.0133 41.2123 28.8753 41.4136 29.6589 41.8005C30.4424 42.1873 31.1265 42.7493 31.658 43.4429L31.7094 43.4414C31.098 42.3143 30.2191 41.3547 29.15 40.6468C28.0809 39.9388 26.8543 39.5043 25.578 39.3814C26.5644 35.9386 29.7308 33.4121 33.4894 33.4121C33.8916 33.4121 34.2816 33.45 34.6666 33.5057C35.4294 33.6157 36.1594 33.825 36.8387 34.1279C38.1075 34.6951 39.2123 35.5738 40.0506 36.6823C40.8889 37.7909 41.4335 39.0933 41.6337 40.4686L41.6351 40.42C41.6351 37.1864 39.978 34.34 37.468 32.6814C38.8973 30.1036 41.643 28.3571 44.7973 28.3571ZM44.7973 25.5C42.9057 25.5014 41.0451 25.9799 39.3876 26.8914C37.7302 27.8028 36.3294 29.1177 35.3151 30.7143C35.2358 30.7007 35.1558 30.6893 35.0766 30.6771C34.5514 30.5982 34.0212 30.5571 33.4901 30.5543C28.5708 30.5543 24.188 33.8607 22.8316 38.5943L22.5094 39.7193C22.1587 39.945 21.8237 40.1979 21.5066 40.4764C20.5851 41.28 19.8465 42.2716 19.3403 43.3846C18.8342 44.4975 18.5723 45.7059 18.5723 46.9286C18.5723 50.6336 20.9358 53.9029 24.4537 55.0643C25.3151 55.3521 26.2223 55.5 27.1394 55.5H51.5508C52.301 55.4986 53.0485 55.4112 53.7787 55.2393C58.278 54.2057 61.4294 50.2471 61.4294 45.6143C61.4253 43.7921 60.9191 42.0062 59.9663 40.4529C59.0136 38.8996 57.6511 37.6389 56.0287 36.8093V36.74C56.0287 30.5429 50.9908 25.5 44.7973 25.5Z" fill="#2196F3"/>
</svg>
