<svg width="80" height="81" viewBox="0 0 80 81" fill="none" xmlns="http://www.w3.org/2000/svg">
<rect y="0.5" width="80" height="80" rx="40" fill="#009688" fill-opacity="0.08"/>
<path d="M53.3333 46.3333C51.3333 46.3333 49.1667 46 47.3333 45.3333H46.8333C46.3333 45.3333 46 45.5 45.6667 45.8333L42 49.5C37.3333 47 33.3333 43.1667 31 38.5L34.6667 34.8333C35.1667 34.3333 35.3333 33.6667 35 33.1667C34.5 31.3333 34.1667 29.1667 34.1667 27.1667C34.1667 26.3333 33.3333 25.5 32.5 25.5H26.6667C25.8333 25.5 25 26.3333 25 27.1667C25 42.8333 37.6667 55.5 53.3333 55.5C54.1667 55.5 55 54.6667 55 53.8333V48C55 47.1667 54.1667 46.3333 53.3333 46.3333ZM28.3333 28.8333H30.8333C31 30.3333 31.3333 31.8333 31.6667 33.1667L29.6667 35.1667C29 33.1667 28.5 31 28.3333 28.8333ZM51.6667 52.1667C49.5 52 47.3333 51.5 45.3333 50.8333L47.3333 48.8333C48.6667 49.1667 50.1667 49.5 51.6667 49.5V52.1667ZM45 40.5H48.3333C48.3333 38.2899 47.4554 36.1702 45.8926 34.6074C44.3298 33.0446 42.2101 32.1667 40 32.1667V35.5C41.3261 35.5 42.5979 36.0268 43.5355 36.9645C44.4732 37.9021 45 39.1739 45 40.5ZM51.6667 40.5H55C55 32.1667 48.2833 25.5 40 25.5V28.8333C46.4333 28.8333 51.6667 34.05 51.6667 40.5Z" fill="#2196F3"/>
</svg>
