<svg width="104" height="104" viewBox="0 0 104 104" fill="none" xmlns="http://www.w3.org/2000/svg">
<path d="M51.7905 96.3684C76.1028 96.3684 95.8117 76.6595 95.8117 52.3473C95.8117 28.0351 76.1028 8.32611 51.7905 8.32611C27.4783 8.32611 7.76937 28.0351 7.76937 52.3473C7.76937 76.6595 27.4783 96.3684 51.7905 96.3684Z" fill="#50B651"/>
<path fill-rule="evenodd" clip-rule="evenodd" d="M95.6767 52.2235C95.6767 76.6121 75.9061 96.3827 51.523 96.3827C27.1398 96.3827 7.36376 76.6121 7.36376 52.2235C7.36376 41.4349 7.66615 39.8309 11.9128 33.6888C11.9128 33.6888 11.6937 40.6263 16.7807 44.7546C19.9437 47.3195 23.2449 45.4679 29.2872 42.685C35.8237 39.672 41.1375 37.7284 45.2834 38.2411C51.5285 39.0146 70.7775 50.5746 80.8233 48.2727C88.8488 46.4375 88.0019 27.516 88.0019 27.516C96.7669 36.0751 95.6767 41.86 95.6767 52.2235Z" fill="url(#paint0_linear_720_14752)"/>
<path fill-rule="evenodd" clip-rule="evenodd" d="M70.4716 84.6595C86.4422 69.637 89.0969 52.4269 78.4357 33.0292C78.4898 33.0687 79.1494 30.7927 80.4144 26.2013C86.0883 33.0723 89.1053 41.5532 89.4654 51.6439C89.4625 64.714 83.1312 75.7192 70.4716 84.6595Z" fill="url(#paint1_linear_720_14752)"/>
<path fill-rule="evenodd" clip-rule="evenodd" d="M62.8966 26.2924C55.1878 22.026 46.3439 13.444 47.5195 11.6417C48.6951 9.83936 63.9539 10.1494 71.6638 14.4158C79.3737 18.6822 85.9354 31.4802 84.7609 33.2825C83.5864 35.0848 70.6054 30.5587 62.8966 26.2924Z" fill="url(#paint2_radial_720_14752)"/>
<path fill-rule="evenodd" clip-rule="evenodd" d="M69.6117 63.1884C63.2165 63.1884 58.032 57.856 58.032 51.2789C58.032 44.7019 63.2165 39.3706 69.6117 39.3706C76.0068 39.3706 81.1924 44.7019 81.1924 51.2789C81.1924 57.856 76.0079 63.1884 69.6117 63.1884ZM69.6938 59.4107C73.6852 59.4107 76.925 55.7699 76.925 51.2789C76.925 46.788 73.6852 43.1505 69.6938 43.1505C65.7025 43.1505 62.4627 46.7913 62.4627 51.2811C62.4627 55.771 65.7025 59.4107 69.6938 59.4107Z" fill="white"/>
<path fill-rule="evenodd" clip-rule="evenodd" d="M45.7193 29.7818H54.0635V63.056H49.4827V33.4314H45.7193V29.7818Z" fill="white"/>
<path fill-rule="evenodd" clip-rule="evenodd" d="M39.5008 39.7091H43.8318V67.4964C43.8318 70.0283 41.1684 72.6655 38.5728 73.8006C37.3457 74.3367 35.0814 74.6552 31.78 74.756V71.9917C35.0091 71.6316 37.1887 70.9132 38.3187 69.8366C38.9707 68.9305 39.3782 67.8717 39.5019 66.7623V58.5988C38.3442 61.0552 36.8863 62.6836 35.1282 63.4842C33.3007 64.4702 29.581 64.3081 28.0625 63.4842C26.544 62.6603 24.3166 60.4909 23.2954 57.2599C23.0128 56.3681 22.3094 53.9413 22.3828 51.3698C22.4485 48.9211 23.2593 46.3299 23.9331 45.265C25.0901 43.4463 26.9143 41.1685 29.6775 40.2164C31.0273 39.7511 33.5289 39.5838 37.1825 39.7146V42.4635C34.4675 42.2802 32.7737 42.3718 32.101 42.7385C31.0919 43.2863 28.8141 43.9623 28.0625 48.9266C27.3109 53.8909 28.0844 57.9534 30.4674 59.2255C31.2836 59.6637 32.7277 60.182 34.0621 59.7251C36.6259 58.8486 39.0385 55.7228 39.2225 53.6049C39.4081 51.456 39.5008 46.8241 39.5008 39.7091Z" fill="white"/>
<path fill-rule="evenodd" clip-rule="evenodd" d="M94.2931 61.062C90.2032 80.7559 72.752 95.5534 51.8464 95.5534C27.9037 95.5534 8.49355 76.1433 8.49355 52.2006C8.49355 37.3263 15.9843 24.2018 27.3986 16.3955C18.1241 24.0868 12.2187 35.7059 12.2187 48.6989C12.2187 71.8747 31.0065 90.6614 54.1812 90.6614C73.0544 90.6614 89.0155 78.2031 94.2931 61.062Z" fill="url(#paint3_radial_720_14752)"/>
<path fill-rule="evenodd" clip-rule="evenodd" d="M51.8461 0.859375C23.4912 0.859375 0.503906 23.8456 0.503906 52.2004C0.503906 80.5552 23.4912 103.543 51.8461 103.543C80.2009 103.543 103.188 80.5552 103.188 52.2004C103.188 23.8456 80.2009 0.859375 51.8461 0.859375ZM51.8464 95.5534C27.9037 95.5534 8.49355 76.1433 8.49355 52.2006C8.49355 37.3263 15.9843 24.2018 27.3986 16.3955C34.5972 11.4653 43.121 8.83417 51.8461 8.84759C75.7888 8.84759 95.1989 28.2566 95.1989 52.2004C95.2004 55.1774 94.8972 58.1469 94.2931 61.062C90.2032 80.7559 72.752 95.5534 51.8464 95.5534Z" fill="white"/>
<defs>
<linearGradient id="paint0_linear_720_14752" x1="49.8416" y1="9.85085" x2="60.585" y2="85.4726" gradientUnits="userSpaceOnUse">
<stop stop-color="#123214"/>
<stop offset="0.46" stop-color="#3E7C37"/>
<stop offset="0.91" stop-color="#5FBB46"/>
</linearGradient>
<linearGradient id="paint1_linear_720_14752" x1="65.6144" y1="7.92476" x2="65.6144" y2="80.527" gradientUnits="userSpaceOnUse">
<stop stop-color="white" stop-opacity="0"/>
<stop offset="0.64" stop-color="white" stop-opacity="0.43"/>
<stop offset="1" stop-color="white" stop-opacity="0.42"/>
</linearGradient>
<radialGradient id="paint2_radial_720_14752" cx="0" cy="0" r="1" gradientUnits="userSpaceOnUse" gradientTransform="translate(54.3738 54.897) rotate(39.3082) scale(68.7663 34.9177)">
<stop offset="0.13" stop-color="white"/>
<stop offset="0.29" stop-color="white" stop-opacity="0.69"/>
<stop offset="0.45" stop-color="white" stop-opacity="0.4"/>
<stop offset="0.59" stop-color="white" stop-opacity="0.18"/>
<stop offset="0.69" stop-color="white" stop-opacity="0.05"/>
<stop offset="0.74" stop-color="white" stop-opacity="0"/>
</radialGradient>
<radialGradient id="paint3_radial_720_14752" cx="0" cy="0" r="1" gradientUnits="userSpaceOnUse" gradientTransform="translate(61.2852 34.3483) rotate(42.1246) scale(60.3977 66.5792)">
<stop offset="0.86" stop-opacity="0"/>
<stop offset="0.98" stop-opacity="0.47"/>
<stop offset="1"/>
</radialGradient>
</defs>
</svg>
