<svg width="115" height="115" viewBox="0 0 115 115" fill="none" xmlns="http://www.w3.org/2000/svg">
<path d="M11.7656 11.8777H102.415V102.524H11.7656V11.8777Z" fill="#FFC325"/>
<path d="M13.1439 57.2014C13.1439 47.7341 32.8195 40.0585 57.0904 40.0585C81.3613 40.0585 101.037 47.7359 101.037 57.2023C101.037 66.6687 81.3622 74.3424 57.0904 74.3424C32.8185 74.3424 13.1439 66.6678 13.1439 57.2014Z" fill="#006891"/>
<path fill-rule="evenodd" clip-rule="evenodd" d="M29.2502 65.5337L33.8113 48.5074H41.0105V58.5214H41.0577L45.9417 48.5074H53.2547L48.6935 65.5337H43.94L46.8639 54.6124H46.8167L41.0105 65.5337H37.2042V54.6124H37.1265L34.2026 65.5337H29.2502Z" fill="white"/>
<path fill-rule="evenodd" clip-rule="evenodd" d="M54.5415 65.8703L55.189 63.4506H60.4355L59.7871 65.8703H54.5415Z" fill="#EE4034"/>
<path fill-rule="evenodd" clip-rule="evenodd" d="M55.3701 62.7709L58.0239 52.8716H53.2546L54.4248 48.5075H69.2089L68.0397 52.8716H63.2705L60.6176 62.7681L55.3701 62.7709Z" fill="#FFC325"/>
<path fill-rule="evenodd" clip-rule="evenodd" d="M65.8186 65.5338L70.3769 48.5075H75.5292L77.8537 57.6177H77.899L80.3391 48.5075H85.1019L80.5426 65.5338H75.6411L73.1168 56.2349H73.0715L70.5814 65.5338H65.8186Z" fill="white"/>
</svg>
