<svg width="16" height="15" viewBox="0 0 16 15" fill="none" xmlns="http://www.w3.org/2000/svg">
<path d="M15.4603 5.38499C15.4132 5.24616 15.3264 5.12417 15.2107 5.03408C15.095 4.944 14.9555 4.88976 14.8093 4.87806L10.5335 4.53836L8.68329 0.443165C8.62436 0.311267 8.52852 0.19924 8.40732 0.120602C8.28612 0.0419652 8.14476 7.93984e-05 8.00028 1.12769e-07C7.8558 -7.91729e-05 7.71439 0.0416514 7.5931 0.120156C7.47182 0.19866 7.37585 0.310582 7.31678 0.442415L5.46653 4.53836L1.19077 4.87806C1.04711 4.88944 0.909774 4.94196 0.795187 5.02934C0.680599 5.11672 0.593615 5.23525 0.54464 5.37077C0.495665 5.50628 0.486773 5.65303 0.519028 5.79346C0.551284 5.9339 0.623321 6.06207 0.72652 6.16264L3.88628 9.24247L2.76877 14.0808C2.73484 14.2273 2.74572 14.3805 2.79999 14.5207C2.85426 14.6609 2.94942 14.7816 3.07313 14.867C3.19683 14.9525 3.34336 14.9988 3.49371 14.9999C3.64406 15.0011 3.79129 14.957 3.91628 14.8734L8.00004 12.1513L12.0838 14.8734C12.2115 14.9583 12.3622 15.0019 12.5155 14.9986C12.6688 14.9952 12.8174 14.945 12.9413 14.8546C13.0653 14.7643 13.1585 14.6382 13.2086 14.4933C13.2587 14.3484 13.2632 14.1916 13.2215 14.0441L11.8498 9.24472L15.2518 6.18363C15.4746 5.98266 15.5563 5.6692 15.4603 5.38499Z" fill="#FFC325"/>
</svg>
