<svg width="80" height="81" viewBox="0 0 80 81" fill="none" xmlns="http://www.w3.org/2000/svg">
<rect y="0.5" width="80" height="80" rx="40" fill="#009688" fill-opacity="0.08"/>
<path d="M21.1504 32.1617C26.4822 27.8422 33.1385 25.4899 40.0004 25.5C47.142 25.5 53.7004 27.995 58.8503 32.1617L56.757 34.755C52.0174 30.9152 46.1003 28.8241 40.0004 28.8334C33.6504 28.8334 27.8237 31.05 23.2437 34.755L21.1504 32.1617ZM26.3854 38.645C30.2364 35.525 35.0441 33.8259 40.0004 33.8334C44.9563 33.826 49.7639 35.5244 53.6154 38.6434L51.5204 41.2367C48.2618 38.5972 44.1938 37.16 40.0004 37.1667C35.637 37.1667 31.6287 38.6917 28.4804 41.2367L26.3854 38.6434V38.645ZM31.622 45.1283C33.9917 43.2081 36.9503 42.1622 40.0004 42.1667C43.1737 42.1667 46.0887 43.275 48.3787 45.1267L46.2837 47.72C44.5064 46.2804 42.2876 45.4965 40.0004 45.5C37.6204 45.5 35.4337 46.3317 33.717 47.72L31.622 45.1267V45.1283ZM36.8587 51.6117C37.7472 50.8913 38.8566 50.4988 40.0004 50.5C41.1904 50.5 42.2837 50.9167 43.142 51.61L40.0004 55.5L36.8587 51.6117Z" fill="#2196F3"/>
</svg>
