<svg width="37" height="26" viewBox="0 0 37 26" fill="none" xmlns="http://www.w3.org/2000/svg">
<path d="M36.0404 9.31079C36.1204 6.9975 35.6145 4.70153 34.5697 2.63605C33.8609 1.78853 32.8772 1.21659 31.7899 1.01989C27.293 0.611852 22.7775 0.44461 18.2627 0.518882C13.7644 0.441239 9.26507 0.603084 4.78393 1.00373C3.89799 1.16489 3.07811 1.58044 2.42434 2.19969C0.969799 3.5411 0.808183 5.83604 0.646567 7.77543C0.412082 11.2624 0.412082 14.7612 0.646567 18.2481C0.693323 19.3397 0.855849 20.4232 1.13141 21.4805C1.32628 22.2967 1.72054 23.0519 2.27889 23.6784C2.9371 24.3305 3.77607 24.7697 4.68696 24.939C8.17127 25.3691 11.682 25.5474 15.192 25.4724C20.8485 25.5532 25.8102 25.4724 31.6768 25.0198C32.6101 24.8609 33.4727 24.4211 34.1495 23.7592C34.602 23.3066 34.94 22.7525 35.1354 22.1431C35.7134 20.3695 35.9973 18.5134 35.9758 16.6481C36.0404 15.7431 36.0404 10.2805 36.0404 9.31079ZM14.6102 17.6178V7.61382L24.1778 12.6401C21.495 14.1269 17.9556 15.8077 14.6102 17.6178Z" fill="#2196F3"/>
</svg>
